<svg xmlns="http://www.w3.org/2000/svg" viewBox="0 0 1024 1024">
  <path fill="#0c0c0c" fill-rule="evenodd" d="M720.156 161.511c-18.029 3.265-38.786 14.775-56.717 31.448-13.333 12.398-22.924 22.996-23.566 26.041-.173.825 1.552 4.65 3.834 8.5 5.423 9.146 7.694 17.136 7.012 24.664-.899 9.918-3.572 13.965-19.703 29.836-22.297 21.938-27.991 29.952-29.489 41.512-.549 4.24-.293 5.54 1.667 8.449l2.317 3.437-2.256 2.256c-4.163 4.163-2.226 11.873 3.589 14.281 2.379.986 2.692 1.596 2.346 4.563-.529 4.535 2.08 8.627 10.658 16.72 10.549 9.951 24.29 15.765 47.902 20.267 5.087.97 9.25 2.171 9.25 2.669 0 .498-2.475 6.074-5.5 12.39-3.025 6.317-5.5 12.23-5.5 13.142 0 .911.745 2.479 1.655 3.485 2.049 2.265 1.619 2.254-7.587-.195-10.457-2.78-21.174-2.631-29.559.413-7.671 2.785-12.611 6.007-20.865 13.611-3.284 3.025-5.47 4.56-4.859 3.412 1.81-3.399.396-5.88-5.329-9.35-16.691-10.115-39.591-14.889-56.257-11.728-32.528 6.171-55.384 37.56-61.243 84.109-1.56 12.397-.732 40.712 1.568 53.557 5.201 29.055 16.209 52.225 33.336 70.168 13.864 14.524 23.492 21.153 38.923 26.801 6.682 2.446 6.879 2.912 1.937 4.606-2.882.988-3.346 1.802-5.701 10-1.41 4.909-4.064 12.975-5.897 17.925-3.279 8.857-15.947 35.429-18.423 38.646-1.165 1.513-1.87 1.439-8.733-.918-9.491-3.26-25.709-3.632-35.964-.824-15.534 4.254-29.816 12.662-41.212 24.265-7.967 8.111-9.819 10.459-12.653 16.041-4.53 8.923-1.947 16.899 7.062 21.802 4.467 2.431 6.37 2.854 12.775 2.84 9.785-.021 13.314-1.856 23.422-12.183 8.16-8.336 15.286-12.86 23.883-15.164 8.852-2.373 7.421.189-6.974 12.478-11.364 9.703-13.497 13.049-10.872 17.056.92 1.403 2.802 2.98 4.184 3.506 7.416 2.819 73.959-1.489 86.489-5.599 5.684-1.865 6.764-3.074 15.71-17.58 9.077-14.717 13.674-20.986 28.14-38.366 12.929-15.533 21.932-27.314 26.94-35.25 1.822-2.888 3.756-5.25 4.298-5.25.542 0 4.433 3.094 8.646 6.877 16.531 14.84 33.507 25.966 53.1 34.802 6.455 2.911 10.949 4.313 13.836 4.316l4.275.005-1.449 2.802c-2.102 4.066-9.723 10.759-13.686 12.021-1.879.598-10.616 1.761-19.416 2.583-23.844 2.228-37.209 6.559-53.308 17.27-21.823 14.521-35.041 34.931-28.218 43.574 2.757 3.492 8.905 3.869 11.834.726 1.878-2.016 1.887-2.012 1.975 1.1.128 4.494 2.738 6.924 7.438 6.924 5.319 0 6.963-1.021 16.779-10.423 7.511-7.194 17.593-14.318 18.698-13.212.217.216-2.439 2.462-5.902 4.99-17.191 12.549-22.627 21.486-16.161 26.572 1.927 1.517 4.086 2.073 8.04 2.073 6.221 0 10.988-2.104 19.395-8.562 8.618-6.619 17.717-11.131 23.771-11.787 3.645-.395 9.229.182 17.58 1.814 27.397 5.357 47.121 6.379 59.579 3.089 18.623-4.917 33.815-18.108 37.977-32.973 1.279-4.568 2.243-5.219 7.023-4.748.825.081 6.109.611 11.742 1.177 23.986 2.41 52.637-4.446 62.768-15.021l2.729-2.848c5.54349-3.0418 20.28616-10.66077 23.761-33.286 0-.492 1.103-2.643 2.452-4.779 10.102-16.003 20.88-43.394 26-66.076 6.039-26.75 7.008-37.539 7.006-78-.001-46.838-1.853-62.892-12.086-104.812-11.313-46.344-30.957-91.797-51.85-119.975-7.741-10.44-22.885-25.083-35.646-34.467-6.393-4.701-12.355-9.592-13.25-10.869-2.07-2.956-2.051-8.077.07-19.377 1.208-6.434 1.684-14.274 1.669-27.5-.019-16.742-.268-19.423-2.626-28.212-8.031-29.946-30.41-55.663-60.282-69.276-20.383-9.289-39.996-12.317-58.301-9.001m2.584 2.072c-16.137 2.917-29.227 8.904-44.74 20.462-10.252 7.639-31.792 28.718-34.299 33.566-1.482 2.866-1.413 3.18 1.857 8.433 6.906 11.096 9.407 24.376 6.358 33.773-2.215 6.827-8.122 14.237-19.298 24.205-24.487 21.84-33.988 39.112-26.378 47.956 1.216 1.413 2.966 2.022 5.809 2.022 5.058 0 4.395 1.399-1.348 2.845-5.79 1.458-8.38 4.322-7.128 7.882 2.237 6.362 12.007 8.205 43.927 8.286 15.223.038 18.602.286 17 1.246-2.198 1.317-43.412 1.582-49.163.316-2.642-.581-3.27-.36-3.81 1.339-1.012 3.191 2.066 8.378 8.822 14.865 10.51 10.093 25.594 16.242 52.151 21.262 3.85.727 7.145 1.423 7.322 1.546.707.491-3.186 10.413-7.432 18.944-2.473 4.967-4.231 9.692-3.908 10.5.323.808 3.783 3.269 7.689 5.469 9.851 5.549 18.633 15.244 24.375 26.911 4.381 8.901 8.454 22.216 8.454 27.638 0 2.366.498 2.818 3.75 3.403 4.144.745 11.923 2.562 38.75 9.053 9.9 2.395 21.774 4.897 26.387 5.56 12.214 1.755 27.739.744 37.613-2.451 9.281-3.003 9.5-3.033 9.5-1.319 0 1.761-11.144 7.301-18.46 9.177-6.969 1.787-22.508 2-32.848.451-3.956-.593-15.292-3.057-25.192-5.475-26.205-6.402-39.754-8.503-54.912-8.515-11.792-.009-13.352.209-18 2.508-2.965 1.467-5.944 3.882-7.139 5.788-2.196 3.503-4.895 11.658-4.116 12.437.259.259 3.073-.009 6.253-.597 8.626-1.595 16.414-1.409 16.414.391 0 .872-1.711 1.918-4.25 2.598-15.094 4.044-20.079 7.313-19.261 12.626.281 1.824.755 4.885 1.054 6.803l.543 3.487 5.598-2.987c5.869-3.132 10.316-3.87 10.316-1.713 0 .701-2.7 3.241-6 5.644s-6 4.686-6 5.074c0 .388 2.123 2.799 4.718 5.357l4.717 4.651 10.533.016c23.844.036 51.147 3.52 90.532 11.555 30.597 6.242 46.384 8.408 61.372 8.42 10.997.01 28.364-2.151 36.56-4.548 10.247-2.998 9.62-.278-.908 3.937-10.577 4.234-24.707 6.62-39.207 6.62-17.164 0-24.14-.945-62.317-8.444-43.696-8.582-40.6-8.18-41.353-5.371-.341 1.273-.626 4.633-.633 7.466-.036 13.32-6.189 37.829-12.767 50.849-6.17 12.214-16.437 22.333-28.247 27.842-5.839 2.723-7.466 3.027-16 2.986-15.324-.073-27.139-5.555-41.156-19.096-6.371-6.154-7.755-7.089-8.242-5.564-.847 2.648-13.169 15.25-19.602 20.046-13.187 9.832-26.051 13.846-41.576 12.976l-9.077-.509-2.252 7.66c-5.078 17.268-12.458 34.93-21.21 50.757l-5.031 9.098-8.677-2.939c-8.149-2.761-9.408-2.912-20.677-2.49-14.766.554-23.989 3.286-36.979 10.953-10.19 6.014-24.497 19.403-29.014 27.152-7.488 12.846.249 23.628 16.955 23.628 6.151 0 7.777-.4 11.673-2.871 2.489-1.578 6.74-5.434 9.446-8.568 5.297-6.136 12.325-11.217 19.253-13.921 4.334-1.691 16.166-3.749 16.166-2.812 0 2.349-7.864 11.629-14.677 17.32-9.058 7.566-11.68 10.754-11.144 13.553.863 4.499 11.194 5.139 44.713 2.769 25.193-1.782 41.007-3.853 45.425-5.951 2.193-1.04 4.72-4.035 8.127-9.63 8.231-13.517 19.435-28.929 31.556-43.406 14.404-17.205 24.202-30.192 28.781-38.148l3.548-6.166 2.585 1.63c1.422.897 5.286 3.931 8.586 6.743 10.382 8.847 19.782 16.011 27.52 20.973 10.445 6.699 30.826 16.52 35.612 17.162l3.999.537 2.594-5.857c1.426-3.221 4.947-11.707 7.825-18.857 18.834-46.798 40.579-71.827 71.45-82.236 7.477-2.522 9.143-2.698 25.5-2.704 20.018-.006 27.019 1.419 41.668 8.481 8.114 3.911 19.519 13.067 18.09 14.522-.409.415-5.809-1.794-12-4.91-6.192-3.116-15.308-6.875-20.258-8.354-8.274-2.472-10.451-2.693-27-2.744-19.336-.059-22.656.548-34 6.223-11.654 5.829-24.839 18.602-34.747 33.661-7.14 10.853-11.593 19.551-19.229 37.561-7.666 18.081-15.147 32.29-19.758 37.528-6.096 6.926-9.926 8.218-30.838 10.408-20.374 2.133-29.987 4.434-40.322 9.65-23.972 12.099-44.62 35.355-40.654 45.789 1.251 3.29 5.254 4.376 8.44 2.288 1.307-.857 4.077-4.619 6.155-8.36 5.036-9.069 15.314-19.125 23.832-23.318 3.663-1.803 6.908-3.031 7.211-2.728.303.302-1.619 2.005-4.27 3.783-7.209 4.835-18.979 16.715-22.877 23.091-4.43 7.245-4.716 12.434-.769 13.935 4.493 1.709 7.446.22 17.326-8.733 11.772-10.668 14.762-12.644 23.224-15.344 8.21-2.62 11.953-2.303 6.927.586-8.07 4.64-21.247 14.75-25.994 19.943-6.32 6.916-7.37 10.081-4.197 12.651 5.024 4.068 12.885 1.676 26.36-8.02 16.541-11.901 21.394-12.903 42.74-8.824 25.458 4.865 41.709 5.935 54.506 3.586 17.159-3.149 31.875-14.605 37.944-29.538 3.259-8.018 4.918-9.711 8.818-8.995 7.864 1.443 33.806 1.875 41.177.686 13.926-2.247 26.56-7.417 33.547-13.73l3.962-3.58c12.80486-13.62328 21.65282-17.53535 20.998-30.012-3.02005 8.64733 1.592-3.942 3.524-7.242 17.305-29.559 27.23-62.356 31.625-104.5 1.956-18.751 1.664-64.94-.526-83.5-3.716-31.486-13.951-74.506-25.283-106.271-2.497-7.001-7.859-19.622-11.915-28.047-18.178-37.757-33.142-56.908-60.56-77.507-6.257-4.702-12.165-9.884-13.127-11.516-2.161-3.665-2.272-11.487-.328-23.159 3.246-19.489 2.772-37.247-1.421-53.254-10.244-39.113-49.446-71.609-92.501-76.68-10.759-1.268-10.914-1.264-20.76.517M63.667 222.667c-.367.366-.667 42.441-.667 93.5V409l32.25-.017c35.325-.019 41.058-.651 51.424-5.665 11.529-5.577 18.179-14.822 20.904-29.06 2.012-10.518 1.998-105.137-.018-116.439-3.264-18.305-15.558-30.72-34.359-34.698-5.726-1.211-68.368-1.621-69.534-.454m116.019-.02c-1.08 1.08-.818 150.385.274 156.142 2.908 15.336 13.536 26.194 30.171 30.824 8.682 2.416 28.899 2.947 38.369 1.007 20.836-4.269 32.525-15.6 35.396-34.312.73-4.754 1.104-32.124 1.104-80.769V221.96l-21.25.27-21.25.27-.5 72.045c-.455 65.55-.653 72.278-2.197 74.634-4.023 6.137-12.849 5.228-16.303-1.679-1.94-3.881-2.003-6.098-2.093-74.5l-.092-70.5-20.471-.27c-11.259-.148-20.78.039-21.158.417M298 315.523v93.522l18.25-.272 18.25-.273.5-44 .5-44 2.745 16c8.244 48.043 11.765 68.234 12.251 70.25.536 2.226.726 2.25 17.912 2.25h17.369l.652-3.75c1.515-8.721 13.712-72.213 14.84-77.25 1.052-4.703 1.269.771 1.492 37.75l.26 43.25H440V221.967l-26.208.266-26.208.267-1.742 8.5c-3.661 17.857-13.542 77.285-14.424 86.75-.372 3.988-1.006 7.25-1.409 7.25s-1.022-2.827-1.376-6.282c-.354-3.455-3.315-22.242-6.579-41.75-7.789-46.544-8.928-52.955-9.604-54.05-.322-.521-12.222-.918-27.509-.918H298v93.523m156-.022v93.635l35.75-.336c34.369-.323 35.999-.425 42.196-2.645 13.403-4.8 20.354-11.608 25.255-24.736 1.995-5.342 2.214-7.819 2.254-25.419.038-16.356-.252-20.387-1.795-25-2.248-6.721-5.563-11.246-10.759-14.685l-3.938-2.605 3.268-2.238c8.648-5.921 11.91-14.918 12.5-34.472.501-16.575-.968-25.987-5.433-34.811-3.73-7.372-11.683-14.416-19.516-17.284-6.048-2.215-7.65-2.314-43.032-2.669l-36.75-.369v93.634M65 315.5V407h31.34c27.735 0 32.212-.223 38.919-1.938 16.64-4.256 24.762-11.825 29.575-27.562 1.26-4.12 1.598-13.795 1.919-55 .438-56.357-.127-65.379-4.709-75.201-5.499-11.786-16.963-20.002-31.044-22.247-3.575-.57-19.887-1.04-36.25-1.044L65 224v91.5m116.008-18.25c.004 45.5.398 75.658 1.038 79.605 2.674 16.477 13.576 27.31 31.454 31.254 3.318.732 12.035 1.329 19.5 1.336 18.892.016 28.326-2.993 38.128-12.161 6.291-5.885 9.498-12.802 10.819-23.334.648-5.17 1.053-35.599 1.053-79.174V224h-38.937l-.281 71.75c-.316 80.492.037 76.692-7.351 79.036-5.182 1.643-10.805-.026-13.835-4.109-2.076-2.796-2.099-3.505-2.365-74.75l-.27-71.927H181l.008 73.25M300 315.5V407h33.105l-.303-57.917c-.166-31.855-.214-57.83-.107-57.722.107.107 2.244 12.558 4.75 27.667 2.505 15.11 6.313 37.372 8.463 49.472 2.15 12.1 4.211 24.025 4.581 26.5.369 2.475 1.103 6.188 1.63 8.25l.958 3.75h30.658l5.097-26.25c5.719-29.459 12.356-65.689 14.518-79.25l1.435-9-.142 14.5c-.079 7.975-.03 33.738.107 57.25L405 407h33V224h-24.5c-13.475 0-24.5.26-24.5.578 0 .53-1.117 7.006-5.506 31.922-4.374 24.83-10.447 62.065-11.497 70.5-1.904 15.287-2.162 15.351-4.04 1-.972-7.425-2.955-20.475-4.408-29-4.52-26.521-10.625-62.213-11.76-68.75l-1.085-6.25H300v91.5m156 .08v91.58l34.25-.35c34.019-.348 34.299-.368 41.464-2.967 17.766-6.446 24.885-18.038 26.001-42.343 1.313-28.589-4.478-42.612-19.011-46.032-4.048-.952-4.76-1.383-3.204-1.94 6.53-2.336 8.217-3.219 11.255-5.886 6.769-5.943 10.223-17.342 10.193-33.642-.055-29.538-9.217-43.982-30.804-48.557-4.904-1.039-14.96-1.413-38.394-1.426L456 224v91.58m327.385-73.014c-4.743 1.741-12.385 7.918-12.385 10.012 0 1.946.91 1.81 7.21-1.074 14.719-6.739 26.704-3.267 30.279 8.772 1.9 6.397 1.899 9.777-.004 17.264-2.884 11.347-8.08 20.239-17.143 29.341-7.924 7.956-8.523 8.351-11.853 7.811-1.93-.313-4.811-1.497-6.403-2.631-3.812-2.714-5.086-2.6-5.086.454 0 3.688 5.693 9.41 10.421 10.471 5.473 1.229 10.066-1.331 19.494-10.866 7.991-8.082 12.588-14.969 16.912-25.341 2.276-5.458 2.622-7.717 2.646-17.279.026-10.483-.119-11.259-3.079-16.5-4.466-7.908-10.37-11.4-19.797-11.71-4.403-.145-8.659.34-11.212 1.276M494 275.985v23.248l6.75-.69c10.009-1.022 13.269-3.039 15.556-9.621 1.498-4.31 1.805-7.474 1.496-15.422-.612-15.794-3.55-19.463-16.236-20.277l-7.566-.486v23.248m-389 38.381V374l5.75-.022c8.37-.032 13.455-2.635 15.844-8.109 1.766-4.047 1.927-7.671 2.195-49.228.329-51.017.075-53.355-6.327-58.238-2.786-2.125-4.937-2.776-10.483-3.172l-6.979-.5v59.635m391-38.75v20.617l6.468-.412c7.744-.493 10.676-2.691 12.559-9.418 1.669-5.962.81-20.884-1.455-25.265-2.036-3.936-6.714-6.138-13.04-6.138H496v20.616m-389 38.88v57.744l5.795-.419c7.14-.516 10.739-2.924 12.443-8.321 2.002-6.345 1.793-92.618-.238-97.904-2.055-5.349-5.737-7.827-12.459-8.384l-5.541-.46v57.744m387 37.686v27.446l6.25-.407c7.897-.514 12.639-2.763 15.222-7.221 1.8-3.106 2.028-5.246 2.028-19 0-14.001-.215-15.935-2.222-20-2.918-5.907-5.311-7.237-14.028-7.797l-7.25-.466v27.445m2-.321V377h4.532c6.288 0 10.987-2.205 13.152-6.171 2.561-4.694 2.687-31.743.168-36.331-2.818-5.137-5.259-6.634-11.778-7.225l-6.074-.551v25.139m47 71.746c-14.117 2.6-29.168 12.717-38.5 25.879-26.151 36.882-28.56 103.55-5.409 149.717 11.531 22.995 27.888 40.202 47.409 49.872 24.524 12.148 44.967 7.95 66-13.555 10.738-10.978 10.67-10.656 4.196-20.087-13.205-19.235-23.576-46.593-28.855-76.123-1.912-10.694-2.288-16.279-2.277-33.81.011-18.084.329-22.454 2.289-31.475 2.52-11.594 6.78-22.71 11.209-29.245 1.596-2.354 2.91-5.017 2.92-5.919.024-2.161-12.903-8.832-23.982-12.374-6.884-2.201-10.782-2.777-20.5-3.029-6.6-.172-13.125-.105-14.5.149m92.105 2.976c-18.15 4.88-31.139 21.348-37.796 47.917-2.586 10.318-2.758 12.363-2.783 33-.033 28.16 2.502 43.044 11.581 68 7.806 21.457 19.082 39.704 33.382 54.021 22.69 22.717 44.267 24.264 63.511 4.555 3.575-3.661 8.201-9.564 10.28-13.117 6.196-10.587 10.784-28.613 12.235-48.077l.643-8.619-2.829-.65c-1.556-.358-13.596-.935-26.756-1.282l-23.926-.632-4.202-4.201c-9.061-9.061-14.54-27.392-12.523-41.895 2.074-14.908 7.798-24.929 17.199-30.108 4.785-2.636 6.318-2.962 13.879-2.947 4.675.009 9.802.364 11.394.789l2.894.773-.646-5.502c-.356-3.027-1.831-8.789-3.278-12.806-10.256-28.467-37.776-45.803-62.259-39.219m-527.524 3.667c-.367 1.788-3.6 19.675-7.183 39.75-3.583 20.075-7.615 42.575-8.959 50-1.344 7.425-3.799 21.253-5.454 30.729-1.656 9.477-4.325 24.102-5.932 32.5-1.607 8.399-3.864 20.896-5.015 27.771-1.151 6.875-2.796 15.74-3.655 19.701-.859 3.96-1.27 7.673-.913 8.25.423.686 9.089 1.049 25.022 1.049 22.364 0 24.413-.144 24.85-1.75.262-.962 1.734-10.862 3.27-22l2.794-20.25h28.274l1.706 11.75c.938 6.462 2.473 16.25 3.41 21.75l1.704 10 25.25.267 25.25.267-.024-3.767c-.013-2.072-.459-5.567-.99-7.767-.825-3.413-30.057-163.78-34.634-190-.864-4.95-1.732-9.562-1.93-10.25-.278-.967-7.799-1.25-33.266-1.25H108.25l-.669 3.25m113.914-1c-.299 1.238-.421 49.05-.27 106.25l.275 104 23.75.268 23.75.268v-75.772l15.75-.555c23.073-.812 31.997-3.794 42.349-14.153 10.836-10.842 14.817-23.37 15.628-49.172.418-13.268.163-19.451-1.133-27.5-3.894-24.186-17.601-40.022-38.472-44.446-4.996-1.059-15.762-1.408-43.853-1.421L222.038 427l-.543 2.25m133.172-1.583c-.367.366-.667 48.291-.667 106.5V640h101.04l-.27-21.25-.27-21.25-24.75-.267-24.75-.268V551h42v-40h-42v-39h46v-45h-47.833c-26.309 0-48.134.3-48.5.667m-245 2c-.367.366-.667 1.781-.667 3.144 0 1.363-2.016 13.551-4.48 27.084-2.464 13.533-6.981 38.555-10.039 55.605-3.058 17.05-7.827 43.375-10.598 58.5-2.771 15.125-6.137 34.025-7.48 42-1.342 7.975-2.693 15.4-3.001 16.5-1.688 6.025-3.741 5.5 21.512 5.5h23.048l.459-2.25c1.089-5.331 5.579-36.887 5.579-39.205V594h32.507l2.816 18.75c1.549 10.313 3.06 20.212 3.358 22l.542 3.25h23.388c20.408 0 23.389-.197 23.389-1.542 0-.848-.663-4.786-1.474-8.75-1.303-6.375-5.255-27.863-17.967-97.708-1.952-10.725-4.678-25.575-6.057-33C178.23 463.245 173 433.36 173 431.278V429h-31.333c-17.234 0-31.634.3-32 .667M223 533.5V638h44v-75.687l15.341-.633c17.827-.736 23.878-1.815 32.233-5.752 7.395-3.484 15.541-11.753 18.98-19.265 5.535-12.09 6.791-19.587 6.811-40.663.015-14.657-.395-21.339-1.651-26.906-4.828-21.393-17.371-34.399-37.214-38.583-5.412-1.141-15.11-1.48-42.75-1.494L223 429v104.5m133 0V638h97v-39h-50v-50h42v-36h-42v-43h46v-41h-93v104.5m-89-39.109V524h6.134c11.183 0 16.278-2.71 18.8-10 1.916-5.538 2.569-25.919 1.058-33.039-2.446-11.526-6.719-15.124-18.742-15.783l-7.25-.397v29.61m2-.03V522h5.599c12.138 0 15.92-4.813 17.024-21.664.694-10.586-.624-21.504-3.197-26.479-1.942-3.755-6.48-5.961-13.588-6.605l-5.838-.53v27.639M138.106 479.5c-.189 6.396-6.472 56.705-9.113 72.978-.538 3.312-.981 6.585-.985 7.272-.006.925 2.855 1.25 10.992 1.25 10.198 0 11-.141 11-1.929 0-1.06-2.075-15.798-4.611-32.75-2.537-16.951-5.186-35.321-5.888-40.821s-1.33-8.2-1.395-6m-1.956 35.801c-3.181 25.332-3.162 25.183-4.567 34.949l-1.259 8.75h8.838c4.861 0 8.837-.337 8.836-.75-.003-1.562-8.994-60.58-9.271-60.857-.16-.16-1.32 7.899-2.577 17.908m416.834 13.562c-9.399 5.026-9.947 18.967-1.12 28.476 5.981 6.442 13.051 7.497 18.37 2.741 3.225-2.884 3.266-3.031 3.244-11.75-.023-9.26-1.857-14.709-6.519-19.371-2.549-2.549-9.301-2.595-13.975-.096"/>
  <path fill="#fbfbfb" fill-rule="evenodd" d="M722.74 163.583c-16.137 2.917-29.227 8.904-44.74 20.462-10.252 7.639-31.792 28.718-34.299 33.566-1.482 2.866-1.413 3.18 1.857 8.433 6.906 11.096 9.407 24.376 6.358 33.773-2.215 6.827-8.122 14.237-19.298 24.205-24.487 21.84-33.988 39.112-26.378 47.956 1.216 1.413 2.966 2.022 5.809 2.022 5.058 0 4.395 1.399-1.348 2.845-5.79 1.458-8.38 4.322-7.128 7.882 2.237 6.362 12.007 8.205 43.927 8.286 15.223.038 18.602.286 17 1.246-2.198 1.317-43.412 1.582-49.163.316-2.642-.581-3.27-.36-3.81 1.339-1.012 3.191 2.066 8.378 8.822 14.865 10.51 10.093 25.594 16.242 52.151 21.262 3.85.727 7.145 1.423 7.322 1.546.707.491-3.186 10.413-7.432 18.944-2.473 4.967-4.231 9.692-3.908 10.5.323.808 3.783 3.269 7.689 5.469 9.851 5.549 18.633 15.244 24.375 26.911 4.381 8.901 8.454 22.216 8.454 27.638 0 2.366.498 2.818 3.75 3.403 4.144.745 11.923 2.562 38.75 9.053 9.9 2.395 21.774 4.897 26.387 5.56 12.214 1.755 27.739.744 37.613-2.451 9.281-3.003 9.5-3.033 9.5-1.319 0 1.761-11.144 7.301-18.46 9.177-6.969 1.787-22.508 2-32.848.451-3.956-.593-15.292-3.057-25.192-5.475-26.205-6.402-39.754-8.503-54.912-8.515-11.792-.009-13.352.209-18 2.508-2.965 1.467-5.944 3.882-7.139 5.788-2.196 3.503-4.895 11.658-4.116 12.437.259.259 3.073-.009 6.253-.597 8.626-1.595 16.414-1.409 16.414.391 0 .872-1.711 1.918-4.25 2.598-15.094 4.044-20.079 7.313-19.261 12.626.281 1.824.755 4.885 1.054 6.803l.543 3.487 5.598-2.987c5.869-3.132 10.316-3.87 10.316-1.713 0 .701-2.7 3.241-6 5.644s-6 4.686-6 5.074c0 .388 2.123 2.799 4.718 5.357l4.717 4.651 10.533.016c23.844.036 51.147 3.52 90.532 11.555 30.597 6.242 46.384 8.408 61.372 8.42 10.997.01 28.364-2.151 36.56-4.548 10.247-2.998 9.62-.278-.908 3.937-10.577 4.234-24.707 6.62-39.207 6.62-17.164 0-24.14-.945-62.317-8.444-43.696-8.582-40.6-8.18-41.353-5.371-.341 1.273-.626 4.633-.633 7.466-.036 13.32-6.189 37.829-12.767 50.849-6.17 12.214-16.437 22.333-28.247 27.842-5.839 2.723-7.466 3.027-16 2.986-15.324-.073-27.139-5.555-41.156-19.096-6.371-6.154-7.755-7.089-8.242-5.564-.847 2.648-13.169 15.25-19.602 20.046-13.187 9.832-26.051 13.846-41.576 12.976l-9.077-.509-2.252 7.66c-5.078 17.268-12.458 34.93-21.21 50.757l-5.031 9.098-8.677-2.939c-8.149-2.761-9.408-2.912-20.677-2.49-14.766.554-23.989 3.286-36.979 10.953-10.19 6.014-24.497 19.403-29.014 27.152-7.488 12.846.249 23.628 16.955 23.628 6.151 0 7.777-.4 11.673-2.871 2.489-1.578 6.74-5.434 9.446-8.568 5.297-6.136 12.325-11.217 19.253-13.921 4.334-1.691 16.166-3.749 16.166-2.812 0 2.349-7.864 11.629-14.677 17.32-9.058 7.566-11.68 10.754-11.144 13.553.863 4.499 11.194 5.139 44.713 2.769 25.193-1.782 41.007-3.853 45.425-5.951 2.193-1.04 4.72-4.035 8.127-9.63 8.231-13.517 19.435-28.929 31.556-43.406 14.404-17.205 24.202-30.192 28.781-38.148l3.548-6.166 2.585 1.63c1.422.897 5.286 3.931 8.586 6.743 10.382 8.847 19.782 16.011 27.52 20.973 10.445 6.699 30.826 16.52 35.612 17.162l3.999.537 2.594-5.857c1.426-3.221 4.947-11.707 7.825-18.857 18.834-46.798 40.579-71.827 71.45-82.236 7.477-2.522 9.143-2.698 25.5-2.704 20.018-.006 27.019 1.419 41.668 8.481 8.114 3.911 19.519 13.067 18.09 14.522-.409.415-5.809-1.794-12-4.91-6.192-3.116-15.308-6.875-20.258-8.354-8.274-2.472-10.451-2.693-27-2.744-19.336-.059-22.656.548-34 6.223-11.654 5.829-24.839 18.602-34.747 33.661-7.14 10.853-11.593 19.551-19.229 37.561-7.666 18.081-15.147 32.29-19.758 37.528-6.096 6.926-9.926 8.218-30.838 10.408-20.374 2.133-29.987 4.434-40.322 9.65-23.972 12.099-44.62 35.355-40.654 45.789 1.251 3.29 5.254 4.376 8.44 2.288 1.307-.857 4.077-4.619 6.155-8.36 5.036-9.069 15.314-19.125 23.832-23.318 3.663-1.803 6.908-3.031 7.211-2.728.303.302-1.619 2.005-4.27 3.783-7.209 4.835-18.979 16.715-22.877 23.091-4.43 7.245-4.716 12.434-.769 13.935 4.493 1.709 7.446.22 17.326-8.733 11.772-10.668 14.762-12.644 23.224-15.344 8.21-2.62 11.953-2.303 6.927.586-8.07 4.64-21.247 14.75-25.994 19.943-6.32 6.916-7.37 10.081-4.197 12.651 5.024 4.068 12.885 1.676 26.36-8.02 16.541-11.901 21.394-12.903 42.74-8.824 25.458 4.865 41.709 5.935 54.506 3.586 17.159-3.149 31.875-14.605 37.944-29.538 3.259-8.018 4.918-9.711 8.818-8.995 7.864 1.443 33.806 1.875 41.177.686 13.926-2.247 26.56-7.417 33.547-13.73l3.962-3.58c24.13043-16.94776 18.71123-24.86284 20.998-30.012.006-.683 1.592-3.942 3.524-7.242 17.305-29.559 27.23-62.356 31.625-104.5 1.956-18.751 1.664-64.94-.526-83.5-3.716-31.486-13.951-74.506-25.283-106.271-2.497-7.001-7.859-19.622-11.915-28.047-18.178-37.757-33.142-56.908-60.56-77.507-6.257-4.702-12.165-9.884-13.127-11.516-2.161-3.665-2.272-11.487-.328-23.159 3.246-19.489 2.772-37.247-1.421-53.254-10.244-39.113-49.446-71.609-92.501-76.68-10.759-1.268-10.914-1.264-20.76.517M65 315.5V407h31.34c27.735 0 32.212-.223 38.919-1.938 16.64-4.256 24.762-11.825 29.575-27.562 1.26-4.12 1.598-13.795 1.919-55 .438-56.357-.127-65.379-4.709-75.201-5.499-11.786-16.963-20.002-31.044-22.247-3.575-.57-19.887-1.04-36.25-1.044L65 224v91.5m116.008-18.25c.004 45.5.398 75.658 1.038 79.605 2.674 16.477 13.576 27.31 31.454 31.254 3.318.732 12.035 1.329 19.5 1.336 18.892.016 28.326-2.993 38.128-12.161 6.291-5.885 9.498-12.802 10.819-23.334.648-5.17 1.053-35.599 1.053-79.174V224h-38.937l-.281 71.75c-.316 80.492.037 76.692-7.351 79.036-5.182 1.643-10.805-.026-13.835-4.109-2.076-2.796-2.099-3.505-2.365-74.75l-.27-71.927H181l.008 73.25M300 315.5V407h33.105l-.303-57.917c-.166-31.855-.214-57.83-.107-57.722.107.107 2.244 12.558 4.75 27.667 2.505 15.11 6.313 37.372 8.463 49.472 2.15 12.1 4.211 24.025 4.581 26.5.369 2.475 1.103 6.188 1.63 8.25l.958 3.75h30.658l5.097-26.25c5.719-29.459 12.356-65.689 14.518-79.25l1.435-9-.142 14.5c-.079 7.975-.03 33.738.107 57.25L405 407h33V224h-24.5c-13.475 0-24.5.26-24.5.578 0 .53-1.117 7.006-5.506 31.922-4.374 24.83-10.447 62.065-11.497 70.5-1.904 15.287-2.162 15.351-4.04 1-.972-7.425-2.955-20.475-4.408-29-4.52-26.521-10.625-62.213-11.76-68.75l-1.085-6.25H300v91.5m156 .08v91.58l34.25-.35c34.019-.348 34.299-.368 41.464-2.967 17.766-6.446 24.885-18.038 26.001-42.343 1.313-28.589-4.478-42.612-19.011-46.032-4.048-.952-4.76-1.383-3.204-1.94 6.53-2.336 8.217-3.219 11.255-5.886 6.769-5.943 10.223-17.342 10.193-33.642-.055-29.538-9.217-43.982-30.804-48.557-4.904-1.039-14.96-1.413-38.394-1.426L456 224v91.58m327.385-73.014c-4.743 1.741-12.385 7.918-12.385 10.012 0 1.946.91 1.81 7.21-1.074 14.719-6.739 26.704-3.267 30.279 8.772 1.9 6.397 1.899 9.777-.004 17.264-2.884 11.347-8.08 20.239-17.143 29.341-7.924 7.956-8.523 8.351-11.853 7.811-1.93-.313-4.811-1.497-6.403-2.631-3.812-2.714-5.086-2.6-5.086.454 0 3.688 5.693 9.41 10.421 10.471 5.473 1.229 10.066-1.331 19.494-10.866 7.991-8.082 12.588-14.969 16.912-25.341 2.276-5.458 2.622-7.717 2.646-17.279.026-10.483-.119-11.259-3.079-16.5-4.466-7.908-10.37-11.4-19.797-11.71-4.403-.145-8.659.34-11.212 1.276M494 275.985v23.248l6.75-.69c10.009-1.022 13.269-3.039 15.556-9.621 1.498-4.31 1.805-7.474 1.496-15.422-.612-15.794-3.55-19.463-16.236-20.277l-7.566-.486v23.248m-389 38.381V374l5.75-.022c8.37-.032 13.455-2.635 15.844-8.109 1.766-4.047 1.927-7.671 2.195-49.228.329-51.017.075-53.355-6.327-58.238-2.786-2.125-4.937-2.776-10.483-3.172l-6.979-.5v59.635m389 37.816v27.446l6.25-.407c7.897-.514 12.639-2.763 15.222-7.221 1.8-3.106 2.028-5.246 2.028-19 0-14.001-.215-15.935-2.222-20-2.918-5.907-5.311-7.237-14.028-7.797l-7.25-.466v27.445m49 71.425c-14.117 2.6-29.168 12.717-38.5 25.879-26.151 36.882-28.56 103.55-5.409 149.717 11.531 22.995 27.888 40.202 47.409 49.872 24.524 12.148 44.967 7.95 66-13.555 10.738-10.978 10.67-10.656 4.196-20.087-13.205-19.235-23.576-46.593-28.855-76.123-1.912-10.694-2.288-16.279-2.277-33.81.011-18.084.329-22.454 2.289-31.475 2.52-11.594 6.78-22.71 11.209-29.245 1.596-2.354 2.91-5.017 2.92-5.919.024-2.161-12.903-8.832-23.982-12.374-6.884-2.201-10.782-2.777-20.5-3.029-6.6-.172-13.125-.105-14.5.149m92.105 2.976c-18.15 4.88-31.139 21.348-37.796 47.917-2.586 10.318-2.758 12.363-2.783 33-.033 28.16 2.502 43.044 11.581 68 7.806 21.457 19.082 39.704 33.382 54.021 22.69 22.717 44.267 24.264 63.511 4.555 3.575-3.661 8.201-9.564 10.28-13.117 6.196-10.587 10.784-28.613 12.235-48.077l.643-8.619-2.829-.65c-1.556-.358-13.596-.935-26.756-1.282l-23.926-.632-4.202-4.201c-9.061-9.061-14.54-27.392-12.523-41.895 2.074-14.908 7.798-24.929 17.199-30.108 4.785-2.636 6.318-2.962 13.879-2.947 4.675.009 9.802.364 11.394.789l2.894.773-.646-5.502c-.356-3.027-1.831-8.789-3.278-12.806-10.256-28.467-37.776-45.803-62.259-39.219m-525.438 3.084c-.367.366-.667 1.781-.667 3.144 0 1.363-2.016 13.551-4.48 27.084-2.464 13.533-6.981 38.555-10.039 55.605-3.058 17.05-7.827 43.375-10.598 58.5-2.771 15.125-6.137 34.025-7.48 42-1.342 7.975-2.693 15.4-3.001 16.5-1.688 6.025-3.741 5.5 21.512 5.5h23.048l.459-2.25c1.089-5.331 5.579-36.887 5.579-39.205V594h32.507l2.816 18.75c1.549 10.313 3.06 20.212 3.358 22l.542 3.25h23.388c20.408 0 23.389-.197 23.389-1.542 0-.848-.663-4.786-1.474-8.75-1.303-6.375-5.255-27.863-17.967-97.708-1.952-10.725-4.678-25.575-6.057-33C178.23 463.245 173 433.36 173 431.278V429h-31.333c-17.234 0-31.634.3-32 .667M223 533.5V638h44v-75.687l15.341-.633c17.827-.736 23.878-1.815 32.233-5.752 7.395-3.484 15.541-11.753 18.98-19.265 5.535-12.09 6.791-19.587 6.811-40.663.015-14.657-.395-21.339-1.651-26.906-4.828-21.393-17.371-34.399-37.214-38.583-5.412-1.141-15.11-1.48-42.75-1.494L223 429v104.5m133 0V638h97v-39h-50l.53013-49.73493h42L445 513h-42v-43h46v-41h-93v104.5m-89-39.109V524h6.134c11.183 0 16.278-2.71 18.8-10 1.916-5.538 2.569-25.919 1.058-33.039-2.446-11.526-6.719-15.124-18.742-15.783l-7.25-.397v29.61M138.106 479.5c-.189 6.396-6.472 56.705-9.113 72.978-.538 3.312-.981 6.585-.985 7.272-.006.925 2.855 1.25 10.992 1.25 10.198 0 11-.141 11-1.929 0-1.06-2.075-15.798-4.611-32.75-2.537-16.951-5.186-35.321-5.888-40.821s-1.33-8.2-1.395-6m414.878 49.363c-9.399 5.026-9.947 18.967-1.12 28.476 5.981 6.442 13.051 7.497 18.37 2.741 3.225-2.884 3.266-3.031 3.244-11.75-.023-9.26-1.857-14.709-6.519-19.371-2.549-2.549-9.301-2.595-13.975-.096m316.8 320.875c19.81365-.3506-.53455-.0395 0 0"/>
</svg>